<?xml version="1.0" encoding="iso-8859-1"?>
<!-- Generator: Adobe Illustrator 19.0.0, SVG Export Plug-In . SVG Version: 6.00 Build 0)  -->
<svg version="1.1" id="Layer_1" xmlns="http://www.w3.org/2000/svg" xmlns:xlink="http://www.w3.org/1999/xlink" x="0px" y="0px"
	 viewBox="0 0 512.001 512.001" style="enable-background:new 0 0 512.001 512.001;" xml:space="preserve">
<g>
	<g>
		<path style="fill:white;" d="M509.852,283.243c-1.934-2.484-4.904-3.935-8.05-3.935c-12.382,0-24.433,2.74-35.425,7.886l18.057-71.232
			c0.773-3.05,0.096-6.286-1.837-8.77c-1.934-2.484-4.904-3.935-8.05-3.935c-32.498,0-64.373,10.083-90.974,28.578
			C337.939,152.212,252.254,98.475,154.286,98.475c-3.745,0-7.188,2.053-8.97,5.346s-1.615,7.3,0.435,10.434
			c0.397,0.609,39.037,60.145,54.243,118.081c-26.676-18.901-58.389-29.08-91.772-29.08c-3.148,0-6.121,1.454-8.053,3.94
			s-2.608,5.724-1.831,8.775l4.29,16.85c-26.279-18.704-58.292-29.565-92.427-29.565c-3.146,0-6.116,1.452-8.05,3.935
			c-1.933,2.485-2.61,5.72-1.837,8.77l28.623,112.911H18.869c-5.632,0-10.199,4.567-10.199,10.199v64.255
			c0,5.632,4.567,10.199,10.199,10.199h474.263c5.632,0,10.199-4.567,10.199-10.199V363.46c0-4.616-3.07-8.512-7.277-9.769
			l15.633-61.678C512.461,288.963,511.784,285.727,509.852,283.243z M461.277,224.297l-32.692,128.964h-10.26
			c-1.396-36.785-10.297-71.673-25.222-103.162C413.127,235.609,436.746,226.673,461.277,224.297z M172.893,119.578
			c122.457,9.314,219.946,109.747,225.039,233.683H230.371c1.943-20.91,3.77-67.146-9.542-121.764
			C210.054,187.293,186.454,142.838,172.893,119.578z M206.681,264.613c5.643,35.56,4.943,65.374,3.703,82.254l-27.685-16.549
			c-1.582-0.946-3.39-1.445-5.233-1.445h-11.261c-5.987-27.222-18.738-51.591-36.269-71.458l-8.437-33.138
			C153.708,227.307,183.5,241.353,206.681,264.613z M23.467,224.285c58.276,5.566,107.278,47.411,121.789,104.588H49.98
			L23.467,224.285z M482.933,393.128H29.069v-43.857h145.582l38.38,22.943c1.582,0.946,3.39,1.445,5.233,1.445h264.669V393.128z
			 M475.12,353.262h-25.492l9.337-36.836c8.365-7.682,18.484-12.906,29.362-15.272L475.12,353.262z"/>
	</g>
</g>
<g>
	<g>
		<path style="fill:white;" d="M227.625,141.753c-3.35-1.14-6.767-2.218-10.152-3.203c-5.404-1.568-11.068,1.538-12.641,6.948
			c-1.573,5.409,1.538,11.068,6.948,12.641c3.09,0.898,6.21,1.883,9.272,2.925c1.089,0.369,2.197,0.546,3.287,0.546
			c4.245,0,8.209-2.672,9.655-6.915C235.807,149.362,232.957,143.568,227.625,141.753z"/>
	</g>
</g>
<g>
	<g>
		<path style="fill:white;" d="M347.012,232.311c-22.327-32.387-52.535-58.991-87.358-76.937c-5.007-2.581-11.158-0.614-13.738,4.394
			c-2.581,5.008-0.614,11.159,4.393,13.738c31.85,16.414,59.481,40.751,79.909,70.383c1.979,2.87,5.165,4.411,8.406,4.411
			c1.996,0,4.013-0.584,5.78-1.803C349.041,243.299,350.209,236.948,347.012,232.311z"/>
	</g>
</g>
<g>
</g>
<g>
</g>
<g>
</g>
<g>
</g>
<g>
</g>
<g>
</g>
<g>
</g>
<g>
</g>
<g>
</g>
<g>
</g>
<g>
</g>
<g>
</g>
<g>
</g>
<g>
</g>
<g>
</g>
</svg>
